<?xml version="1.0" encoding="UTF-8"?>
<svg id="APARCH" xmlns="http://www.w3.org/2000/svg" xmlns:xlink="http://www.w3.org/1999/xlink" viewBox="0 0 49 30">
  <defs>
    <style>	
      .cls-1 {
        fill: none;
        stroke: #004c97;
        stroke-width: 1.15;
      }
      .cls-2 {
        fill: #fff;
      }
      .cls-3 {
        stroke: #ccd0d4;
        stroke-width: 0.5px;
        fill: none;
      }
      .cls-4 {
        fill: none;
      }
      .cls-5 {
        clip-path: url(#clippath);
      }
    </style>
    <clipPath id="clippath">
      <rect class="cls-4" width="49" height="30"/>
    </clipPath>
  </defs>
  
  <g class="cls-5">
    <g>
	<rect class="cls-2" width="49" height="30"/>
	<polyline class="cls-1" points="1,22 2.75,23.25 3,25 4,25 4.1875,23.875 4.5,22.5 5.5,20.5 7.7275,20.995 10,21.5 9.5,20 9.656,17.6875 9.7755,16.4805 10,15.5 11,15 12.5,16 16,15.5 17,23.5 22,23 22.906,20.406 23.991,17.5225 25.5,15 26.5,13 29.5,14 30.5,5 31.655,5.66 34,7 34.5,5 36,5 37,8 39,8 39.658,11.615 39.7215,12.831 39.781,14.094 39.8465,15.374 40,18.5 43.5,17.5 43.549,21.6505 46,22.5 48,25"/>
    </g>
  </g>  

  <rect class="cls-3" x="0.25" y="0.25" width="48.5" height="29.5"/>
</svg>