<?xml version="1.0" encoding="UTF-8"?>
<svg id="AR2" xmlns="http://www.w3.org/2000/svg" xmlns:xlink="http://www.w3.org/1999/xlink" viewBox="0 0 49 30">
  <defs>
    <style>
      .cls-1 {
        fill: none;
        stroke: #004c97;
        stroke-width: 1.15;
      }
      .cls-2 {
        fill: #fff;
      }
      .cls-3 {
        stroke: #ccd0d4;
        stroke-width: 0.5px;
        fill: none;
      }
      .cls-4 {
        fill: none;
      }
      .cls-5 {
        clip-path: url(#clippath);
      }
    </style>
    <clipPath id="clippath">
      <rect class="cls-4" width="49" height="30"/>
    </clipPath>
  </defs>
  
  <g class="cls-5">
    <rect class="cls-2" width="49" height="30"/>
  </g>
  <polyline class="cls-1" points="48,25 46,27 44.5,27 42,24 41,23 40,7.5 38,5.5 37,8.5 35,5.5 34,7 32.5,10.5 31.5,15.5 30,17.5 27.5,12.5 25.5,12.5 24.5,10 22.5,13.5 20,16 19,17 16.5,17 16,14.5 13.5,15.5 12,14.5 10.5,18.5 9,19.5 7.5,20.5 6,21 5,24.5 2.5,26 1,23"/>
  <rect class="cls-3" x="0.25" y="0.25" width="48.5" height="29.5"/>
</svg>