<?xml version="1.0" encoding="UTF-8"?>
<svg id="ARMA" xmlns="http://www.w3.org/2000/svg" xmlns:xlink="http://www.w3.org/1999/xlink" viewBox="0 0 49 30">
  <defs>
    <style>
      .cls-1 {
        fill: none;
        stroke: #004c97;
        stroke-width: 1.15;
      }
      .cls-2 {
        fill: #fff;
      }
      .cls-3 {
        stroke: #ccd0d4;
        stroke-width: 0.5px;
        fill: none;
      }
      .cls-4 {
        fill: none;
      }
      .cls-5 {
        clip-path: url(#clippath);
      }
    </style>
    <clipPath id="clippath">
      <rect class="cls-4" width="49" height="30"/>
    </clipPath>
  </defs>
  
  <g class="cls-5">
    <rect class="cls-2" width="49" height="30"/>
  </g>

  <polyline class="cls-1" points="1.5,28.25 2.75,25 6.25,23 7,23.25 8.75,22.75 10.25,20.75 12,22.25 
                  12.75,20.75 13.25,19.5 15.25,19.25 18.25,19.25 19.75,17.25 21,15.25 24.25,18.75 
                  26,17.75 27,17.25 28,12.75 29.25,12.75 32.25,14.5 33.75,9.25 35,6.25 38.25,9.75 
                  39.75,8.75 43.25,8.75 44.25,11 46.25,7.75 46.5,7.75 47,13.75 48.25,14"/>

  <rect class="cls-3" x="0.25" y="0.25" width="48.5" height="29.5"/>
</svg>