<?xml version="1.0" encoding="UTF-8"?>
<svg id="Death" xmlns="http://www.w3.org/2000/svg" xmlns:xlink="http://www.w3.org/1999/xlink" viewBox="0 0 49 30">
  <defs>
    <style>
      .cls-1 {
        fill: none;
        stroke: #004c97;
        stroke-width: 1.15;
      }
      .cls-2 {
        fill: #fff;
      }
      .cls-3 {
        stroke: #ccd0d4;
        stroke-width: 0.5px;
        fill: none;
      }
      .cls-4 {
        fill: none;
      }
      .cls-5 {
        clip-path: url(#clippath);
      }
    </style>
    <clipPath id="clippath">
      <rect class="cls-4" width="49" height="30"/>
    </clipPath>
  </defs>
  
  <g class="cls-5">
    <rect class="cls-2" width="49" height="30"/>
  </g>

  <path class="cls-1" d="M1 10
           C4 10 6 10 8.5 10
           C8.5 10.5 8.5 11 8.5 11.5
           C10.5 11.5 12 11.5 13.5 11.5
           C13.5 12.5 13.5 13.5 13.5 14.5
           C16.5 14.5 19 14.5 21.5 14.5
           C21.5 15.5 21.5 16.5 21.5 17.5
           C22.5 17.5 23 17.5 23.5 17.5
           C23.5 18.5 23.5 19.5 23.5 20.5
           C25.5 20.5 27 20.5 28.5 20.5
           C28.5 21.5 28.5 22.5 28.5 23.5
           C31 23.5 33 23.5 35 23.5
           C35 24.5 35 25.5 35 26.5
           C38 26.5 40.5 26.5 43.5 26.5
           C43.5 27 43.5 27.5 43.5 28
           C45 28 46.5 28 48 28"/>
  <rect class="cls-3" x="0.25" y="0.25" width="48.5" height="29.5"/>
</svg>