<?xml version="1.0" encoding="UTF-8"?>
<svg id="Delaporte" xmlns="http://www.w3.org/2000/svg" xmlns:xlink="http://www.w3.org/1999/xlink" viewBox="0 0 49 30">
  <defs>
    <style>
      .cls-1 {
        fill: #004c97;
      }

      .cls-2 {
        fill: #fff;
      }

      .cls-3 {
        stroke: #ccd0d4;
        stroke-width: .5px;
      }

      .cls-3, .cls-4 {
        fill: none;
      }

      .cls-5 {
        clip-path: url(#clippath);
      }
    </style>
    <clipPath id="clippath">
      <rect class="cls-4" y="0" width="49" height="30"/>
    </clipPath>
  </defs>
  <g class="cls-5">
    <g>
      <rect class="cls-2" y="0" width="49" height="30"/>
      <rect class="cls-1" x="1.89" y="28.2" width="2.27" height="1.45"/>
      <rect class="cls-1" x="4.95" y="25.14" width="2.27" height="4.51"/>
      <rect class="cls-1" x="8" y="19.65" width="2.27" height="10"/>
      <rect class="cls-1" x="11.06" y="12.18" width="2.27" height="17.47"/>
      <rect class="cls-1" x="14.11" y="5.16" width="2.27" height="24.49"/>
      <rect class="cls-1" x="23.28" y="4.56" width="2.27" height="25.09"/>
      <rect class="cls-1" x="26.33" y="10.14" width="2.27" height="19.51"/>
      <rect class="cls-1" x="29.39" y="16.05" width="2.27" height="13.6"/>
      <rect class="cls-1" x="32.44" y="20.91" width="2.27" height="8.73"/>
      <rect class="cls-1" x="35.5" y="24.65" width="2.27" height="5"/>
      <rect class="cls-1" x="38.55" y="27.39" width="2.27" height="2.26"/>
      <rect class="cls-1" x="41.61" y="28.45" width="2.27" height="1.2"/>
      <rect class="cls-1" x="44.66" y="28.73" width="2.27" height=".92"/>
      <rect class="cls-1" x="17.17" y="1.24" width="2.27" height="28.4"/>
      <rect class="cls-1" x="20.22" y="1.24" width="2.27" height="28.4"/>
    </g>
  </g>
  <rect class="cls-3" x=".25" y=".25" width="48.5" height="29.5"/>
</svg>