<?xml version="1.0" encoding="UTF-8"?>
<svg id="EGARCH" xmlns="http://www.w3.org/2000/svg" xmlns:xlink="http://www.w3.org/1999/xlink" viewBox="0 0 49 30">
  <defs>
    <style>
      .cls-1 {
        fill: none;
        stroke: #004c97;
        stroke-width: 1.15;
      }
      .cls-2 {
        fill: #fff;
      }
      .cls-3 {
        stroke: #ccd0d4;
        stroke-width: 0.5px;
        fill: none;
      }
      .cls-4 {
        fill: none;
      }
      .cls-5 {
        clip-path: url(#clippath);
      }
    </style>
    <clipPath id="clippath">
      <rect class="cls-4" width="49" height="30"/>
    </clipPath>
  </defs>
  
  <g class="cls-5">
    <rect class="cls-2" width="49" height="30"/>
  </g>
  
  <path class="cls-1" d="M48.25,22.25
           C46.33,22.43 46.25,23.6 46,24.75
           C45.7,23.76 45.2,23.6 44.5,24.25
           C44.12,25.53 43.71,26.78 43.25,28
           C42.29,27.99 41.46,27.57 40.75,26.75
           C39.94,27.15 39.19,27.65 38.5,28.25
           C37.76,27.78 37.26,27.11 37,26.25
           C36.91,24.32 36.66,22.49 36.25,20.75
           C36.42,17 36.25,13.33 35.75,9.75
           C35.84,7.75 35.75,5.75 35.5,3.75
           C34.95,7.73 34.7,11.73 34.75,15.75
           C34.26,18.16 34.09,20.66 34.25,23.25
           C33.76,24.65 33.6,26.15 33.75,27.75
           C33.25,27.75 32.75,27.75 32.25,27.75
           C31.37,27.53 30.37,27.53 29.25,27.75
           C29.34,26.08 29.25,24.41 29,22.75
           C28.5,23.51 28.25,24.35 28.25,25.25
           C27.79,25.79 27.62,26.45 27.75,27.25
           C27.34,25.35 27.09,23.35 27,21.25
           C26.55,20.84 26.21,20.34 26,19.75
           C25.84,17.69 25.42,15.69 24.75,13.75
           C24.4,15.28 23.99,16.78 23.5,18.25
           C23.34,17.75 23.17,17.25 23,16.75
           C22.86,20 22.36,23.16 21.5,26.25
           C21.23,25.19 20.81,24.19 20.25,23.25
           C19.53,24.69 18.69,26.1 17.75,27.5
           C16.81,27.66 16.14,27.24 15.75,26.25
           C15.37,26.91 14.87,27.16 14.25,27
           C13.27,25.63 12.36,24.21 11.5,22.75
           C11.36,23.52 11.02,24.19 10.5,24.75
           C10,23.09 9.5,21.42 9,19.75
           C8.72,22.42 8.47,25.09 8.25,27.75
           C6.97,27.6 5.81,27.77 0.75,28.25"/>
  
  <rect class="cls-3" x="0.25" y="0.25" width="48.5" height="29.5"/>
</svg>