<?xml version="1.0" encoding="UTF-8"?>
<svg id="Error" xmlns="http://www.w3.org/2000/svg" xmlns:xlink="http://www.w3.org/1999/xlink" viewBox="0 0 49 30">
  <defs>
    <style>
      .cls-1 {
        fill: #004c97;
      }

      .cls-2 {
        fill: #fff;
      }

      .cls-3 {
        stroke: #ccd0d4;
        stroke-width: .5px;
      }

      .cls-3, .cls-4 {
        fill: none;
      }

      .cls-5 {
        clip-path: url(#clippath);
      }
    </style>
    <clipPath id="clippath">
      <rect class="cls-4" width="49" height="30"/>
    </clipPath>
  </defs>
  <g class="cls-5">
    <g>
      <rect class="cls-2" width="49" height="30"/>
      <path class="cls-1" d="M4.7,29.91s6.45-2.81,7.66-14.11c.27-2.55.65-5.15,1.52-7.57.49-1.37,1.19-2.72,2.31-3.68,1.35-1.15,3.17-1.53,4.88-1.73,1.47-.17,2.95-.23,4.43-.19s2.91.15,4.29.63c2.1.73,3.61,2.52,4.64,4.43,1.15,2.13,1.86,4.48,2.37,6.84,2.9,13.46,7.34,15,7.34,15l-39.45.38Z"/>
    </g>
  </g>
  <rect class="cls-3" x=".25" y=".25" width="48.5" height="29.5"/>
</svg>