<?xml version="1.0" encoding="UTF-8"?>
<svg id="GammaAlt" xmlns="http://www.w3.org/2000/svg" xmlns:xlink="http://www.w3.org/1999/xlink" viewBox="0 0 49 30">
  <defs>
    <style>
      .cls-1 {
        fill: #004c97;
      }

      .cls-2 {
        fill: #fff;
      }

      .cls-3 {
        stroke: #ccd0d4;
        stroke-width: .5px;
      }

      .cls-3, .cls-4 {
        fill: none;
      }

      .cls-5 {
        clip-path: url(#clippath);
      }
    </style>
    <clipPath id="clippath">
      <rect class="cls-4" width="49" height="30"/>
    </clipPath>
  </defs>
  <g class="cls-5">
    <g>
      <rect class="cls-2" width="49" height="30"/>
      <path class="cls-1" d="m18.86,11.51c1.6,3.1 2.67,4.89 3.47,6.19c0.8,1.3 1.8,2.8 3.1,3.8c1.3,1 2.7,2.5 4.91,3.7c2.3,1.1 8.01,3.7 10.81,4.8l-39.1,0.06c1.3,-1.9 1.75,-3.06 2.35,-4.36c0.5,-1.3 1.5,-3.2 1.8,-5c0.7,-6.4 2.1,-14.1 3.2,-16.2c1.1,-2.1 1.9,-2.8 3.2,-2.7c1.3,0 2.4,1.5 2.6,1.9l3.12,6.61l0.53,1.2z"/>
    </g>
  </g>
  <rect class="cls-3" x=".25" y=".25" width="48.5" height="29.5"/>
</svg>