<?xml version="1.0" encoding="UTF-8"?>
<svg id="GARCH" xmlns="http://www.w3.org/2000/svg" xmlns:xlink="http://www.w3.org/1999/xlink" viewBox="0 0 49 30">
  <defs>
    <style>
      .cls-1 {
        fill: none;
        stroke: #004c97;
        stroke-width: 1.15;
      }
      .cls-2 {
        fill: #fff;
      }
      .cls-3 {
        stroke: #ccd0d4;
        stroke-width: 0.5px;
        fill: none;
      }
      .cls-4 {
        fill: none;
      }
      .cls-5 {
        clip-path: url(#clippath);
      }
    </style>
    <clipPath id="clippath">
      <rect class="cls-4" width="49" height="30"/>
    </clipPath>
  </defs>
  
  <g class="cls-5">
    <rect class="cls-2" width="49" height="30"/>
  </g>
  
  <polyline class="cls-1" points="
    0.97,27.38 
    1.31,27.25 
    1.65,27.13 
    2,27 
    2.65,25.5 
    3,24 
    3.33,24 
    3.66,24 
    4,24 
    4.33,24.5 
    4.66,24.99 
    5,25.5 
    5.26,25.09 
    5.51,24.66 
    5.74,24.3 
    5.96,23.94 
    6.19,23.56 
    6.41,23.21 
    6.63,22.85 
    6.86,22.48 
    7.5,21.5 
    8.5,20.5 
    8.56,20.82 
    8.61,21.13 
    8.67,21.45 
    8.79,22.06 
    8.91,22.69 
    8.98,23.1 
    9.06,23.5 
    9.14,23.92 
    9.44,25.18 
    11,26 
    11.33,26.5 
    11.66,26.99 
    12,27.5 
    12.38,27.33 
    12.77,27.15 
    13.16,26.97 
    14.5,26.5 
    16,27 
    16,27.33 
    16,27.66 
    16,28 
    17.02,27.79 
    18,27 
    18.49,25.68 
    18.73,24.4 
    19,23 
    19.33,23 
    19.66,23 
    20,23 
    21.64,19.91 
    23,16.86 
    24,13.5 
    24.17,13.5 
    24.33,13.5 
    24.5,13.5 
    24.67,14.45 
    24.84,15.4 
    25,16.35 
    25.14,17.14 
    25.28,17.95 
    25.48,19.33 
    25.54,20.61 
    25.5,22 
    26,21.84 
    26.5,21.67 
    27,21.5 
    27.25,23.48 
    27.5,25.5 
    27.83,25.5 
    28.16,25.5 
    28.5,25.5 
    28.65,25.03 
    28.79,24.55 
    28.94,24.06 
    29.5,22.5 
    30.5,21.5 
    30.7,20.51 
    30.87,19.51 
    31,18.5 
    31.17,18.5 
    31.33,18.5 
    31.5,18.5 
    31.5,19.33 
    31.5,20.15 
    31.5,21 
    32.04,20.61 
    34.5,20 
    35,20.99 
    35.5,21.98 
    36,23 
    37.62,19.47 
    38.81,16.4 
    39,12.5 
    39.5,13 
    40.99,13.49 
    41,14 
    41.5,12.34 
    42.22,10.98 
    42.5,9 
    43.25,10.08 
    43.15,11.29 
    43.21,13.1 
    43.23,13.59 
    43.25,14.08 
    43.27,14.59 
    43.28,15.1 
    43.3,15.6 
    43.31,16.13 
    43.33,16.64 
    43.35,17.16 
    43.37,17.69 
    43.42,18.96 
    43.46,20.23 
    43.5,21.5 
    43.83,21.5 
    44.16,21.5 
    44.5,21.5 
    44.75,20.76 
    45,20 
    45.21,20.48 
    45.42,20.97 
    45.69,21.59 
    45.97,22.22 
    46.24,22.84 
    46.52,23.47 
    46.92,24.47"/>
  
  <rect class="cls-3" x="0.25" y="0.25" width="48.5" height="29.5"/>
</svg>
