<?xml version="1.0" encoding="UTF-8"?>
<svg id="GBM" xmlns="http://www.w3.org/2000/svg" viewBox="0 0 49 30">
  <defs>
    <style>
      .cls-1 {
        fill: none;
        stroke: #004c97;
        stroke-width: 1.15;
      }
      .cls-2 {
        fill: #fff;
      }
      .cls-3 {
        stroke: #ccd0d4;
        stroke-width: 0.5px;
        fill: none;
      }
      .cls-4 {
        fill: none;
      }
      .cls-5 {
        clip-path: url(#clippath);
      }
    </style>
    <clipPath id="clippath">
      <rect class="cls-4" width="49" height="30"/>
    </clipPath>
  </defs>
  
  <g class="cls-5">
    <rect class="cls-2" width="49" height="30"/>
  </g>
  
  <polyline class="cls-1" points="
        1.5,27.5
        4.5,21 
        6.5,20.5 
        9,17 
        11,19 
        12.13,13.88 
        13,8.5 
        13,8.5 
        14,8.5 
        16.5,15.5 
        17.5,15.5 
        20,25.5 
        22.5,24.5 
        25.88,27.69 
        27,27.5 
        27,26.5 
        29,25.5 
        29,26.5 
        30,26.5 
        31.95,21.54 
        33.53,18.72 
        36,13.5 
        38.5,16.5 
        39.5,14 
        41,13.5 
        42,19.5 
        44.5,20.5 
        45.41,22.82 
        46,25 
        48,25 
        48"/>
  
  <rect class="cls-3" x="0.25" y="0.25" width="48.5" height="29.5"/>
</svg>