<?xml version="1.0" encoding="UTF-8"?>
<svg id="GBMAJVR" xmlns="http://www.w3.org/2000/svg" xmlns:xlink="http://www.w3.org/1999/xlink" viewBox="0 0 49 30">
  <defs>
    <style>
      .cls-1 {
        fill: none;
        stroke: #004c97;
        stroke-width: 1.15;
      }
      .cls-2 {
        fill: #fff;
      }
      .cls-3 {
        stroke: #ccd0d4;
        stroke-width: 0.5px;
        fill: none;
      }
      .cls-4 {
        fill: none;
      }
      .cls-5 {
        clip-path: url(#clippath);
      }
    </style>
    <clipPath id="clippath">
      <rect class="cls-4" width="49" height="30"/>
    </clipPath>
  </defs>
  
  <g class="cls-5">
    <rect class="cls-2" width="49" height="30"/>
  </g>

  <polyline class="cls-1" points="
    1.625,28.767
    3.936,28.295
    5.384,28.146
    6.833,27.997
    8.140,27.678
    8.289,27.438
    8.438,27.197
    8.996,27
    9.530,27
    10.290,27
    10.501,26.649
    10.505,25.375
    10.513,22.120
    11.139,18.416
    11.566,19.090
    11.818,19.487
    12.003,18.454
    12.030,16.5
    12.054,14.713
    12.240,12.238
    12.443,11
    12.779,8.948
    12.843,9.169
    13.167,13.5
    13.362,16.113
    13.655,20.011
    13.817,22.162
    14.127,26.292
    14.988,27.561
    16.280,25.794
    16.788,25.100
    17.349,24.991
    19.090,25.252
    20.894,25.523
    21.510,25.387
    22.692,24.457
    23.613,23.732
    24.850,23.320
    26.184,23.293
    28.250,23.250
    28.567,18.250
    28.740,15.5
    28.949,10.775
    29.029,7.750
    29.109,4.725
    29.246,3.263
    29.334,4.5
    29.574,7.904
    31.045,20.659
    31.283,21.406
    31.515,22.132
    33.781,21.096
    35.850,19.319
    36.455,18.799
    37.271,18.497
    37.664,18.648
    38.627,19.017
    39.5,18.060
    39.5,16.635
    39.5,15.993
    39.838,15.339
    40.250,15.181
    40.732,14.996
    41,14.224
    41,13.022
    41,11.993
    41.159,9.373
    41.352,7.201
    41.624,4.149
    41.781,3.591
    42.043,4.750
    42.229,5.575
    42.411,7.375
    42.447,8.750
    42.565,13.329
    42.997,14.907
    44.056,14.631
    44.575,14.495
    45,14.072
    45,13.692
    45,13.312
    45.321,13
    45.714,13
    46.107,13
    46.894,12.407
    47.464,11.683"/>
  
  <rect class="cls-3" x="0.25" y="0.25" width="48.5" height="29.5"/>
</svg>