<?xml version="1.0" encoding="UTF-8"?>
<svg id="GBMAJ" xmlns="http://www.w3.org/2000/svg" xmlns:xlink="http://www.w3.org/1999/xlink" viewBox="0 0 49 30">
  <defs>
    <style>
      .cls-1 {
        fill: none;
        stroke: #004c97;
        stroke-width: 1.15;
      }
      .cls-2 {
        fill: #fff;
      }
      .cls-3 {
        stroke: #ccd0d4;
        stroke-width: 0.5px;
        fill: none;
      }
      .cls-4 {
        fill: none;
      }
      .cls-5 {
        clip-path: url(#clippath);
      }
    </style>
    <clipPath id="clippath">
      <rect class="cls-4" width="49" height="30"/>
    </clipPath>
  </defs>
  
  <g class="cls-5">
    <rect class="cls-2" width="49" height="30"/>
  </g>
  
  <polyline class="cls-1" points="
    0.69,19.32
    1.91,19.13
    3.92,18.83
    5.35,17.46
    5.57,17.15
    5.78,16.83
    6,16.5
    6.33,16.5
    6.66,16.5
    7,16.5
    7.05,15.64
    7.05,15.64
    7.09,14.77
    7.14,14.02
    7.18,13.28
    7.22,12.53
    7.24,12.16
    7.26,11.78
    7.28,11.39
    7.45,8.56
    8,8
    9.34,7.93
    10.66,7.98
    12,8
    12,7.67
    12,7.34
    12,7
    12.31,7.18
    12.62,7.35
    12.94,7.53
    13.29,7.69
    13.64,7.84
    14,8
    14.33,7.84
    14.66,7.67
    15,7.5
    15.66,7.67
    16.32,7.83
    17,8
    17.25,10.97
    17.5,14
    17.83,14
    18.16,14
    18.5,14
    18.53,14.37
    18.56,14.74
    18.59,15.12
    18.71,16.79
    18.84,18.46
    18.97,20.13
    19.04,21.00
    19.04,21.00
    19.10,21.88
    19.17,22.72
    19.17,22.72
    19.23,23.57
    19.27,24.09
    19.31,24.60
    19.35,25.13
    19.48,26.30
    19.68,27.37
    20,28.5
    21.17,28.52
    22.34,28.52
    23.5,28.5
    23.67,28.34
    23.83,28.17
    24,28
    25.01,28.05
    26.02,28.13
    27.03,28.22
    27.59,28.27
    28.14,28.32
    28.71,28.38
    29.13,28.42
    29.56,28.46
    30,28.5
    30.51,26.42
    30.55,24.48
    30.53,22.35
    30.53,21.72
    30.52,21.09
    30.52,20.45
    30.52,19.97
    30.51,19.49
    30.5,19
    31.74,19.50
    31.74,19.50
    33,20
    35.85,16.87
    35.89,14.16
    35.91,10.03
    35.92,9.45
    35.93,8.87
    35.95,8.27
    35.98,6.85
    35.99,5.43
    36,4
    36.61,4.02
    36.61,4.02
    37.22,4.03
    38.47,4.15
    38.47,4.15
    40,3.5
    40,2.5
    40,4.5
    40,2.5
    46.5,4.5
    46.81,6.96
    46.83,7.51
    46.86,8.06
    46.92,9.23
    46.95,9.83
    46.98,10.45
    47.07,12.35
    47.12,13.59
    47.19,14.83
    47.26,16.07
    47.30,17.17
    47.83,19.17"/>
  
  <rect class="cls-3" x="0.25" y="0.25" width="48.5" height="29.5"/>
</svg>