<?xml version="1.0" encoding="UTF-8"?>
<svg id="GBMVR" xmlns="http://www.w3.org/2000/svg" xmlns:xlink="http://www.w3.org/1999/xlink" viewBox="0 0 49 30">
  <defs>
    <style>
      .cls-1 {
        fill: none;
        stroke: #004c97;
        stroke-width: 1.15;
      }
      .cls-2 {
        fill: #fff;
      }
      .cls-3 {
        stroke: #ccd0d4;
        stroke-width: 0.5px;
        fill: none;
      }
      .cls-4 {
        fill: none;
      }
      .cls-5 {
        clip-path: url(#clippath);
      }
    </style>
    <clipPath id="clippath">
      <rect class="cls-4" width="49" height="30"/>
    </clipPath>
  </defs>
  
  <g class="cls-5">
    <rect class="cls-2" width="49" height="30"/>
  </g>

  <polyline class="cls-1" points="
    1,23
    2.5,25.5
    2.5,25.5
    3,26.5
    4.593,23.534
    5.827,20.805
    6.5,17.5
    7.16,17.665
    7.82,17.83
    8.5,18
    8.558,17.634
    8.615,17.268
    8.674,16.891
    9.007,15.473
    9.479,14.497
    10.219,13.25
    11.115,11.698
    11.899,10.195
    12.5,8.5
    14.232,10.001
    14.82,11.119
    15.313,13.344
    15.514,14.236
    15.737,15.124
    16,16
    16.33,16.165
    16.66,16.33
    17,16.5
    17.297,17.825
    17.371,19.146
    17.5,20.5
    18.811,19.976
    19.397,19.676
    20.125,18.438
    20.249,18.128
    20.373,17.819
    20.5,17.5
    20.882,17.665
    21.263,17.83
    21.657,18
    22.996,18.588
    24.5,18.5
    25.858,14.174
    27.215,9.849
    28.5,5.5
    29.16,5.995
    29.82,6.49
    30.5,7
    30.624,6.598
    30.748,6.196
    30.875,5.782
    31.185,5.147
    31.5,4.5
    32.532,4.157
    33.5,4
    33.665,3.67
    33.83,3.34
    34,3
    34,3
    34.943,4.415
    35.251,5.224
    35.627,6.838
    35.788,7.521
    35.952,8.218
    36.115,8.930
    36.282,9.657
    36.392,10.125
    36.503,10.594
    36.616,11.077
    37.153,13.376
    37.652,15.664
    38,18
    38.825,17.67
    39.65,17.34
    40.5,17
    40.837,18.041
    41.17,19.083
    41.5,20.125
    41.686,20.705
    41.871,21.285
    42.063,21.883
    42.5,23.5
    42.5,23.5
    42.5,25.5
    44.048,25.173
    44.532,24.032
    45.08,22.24
    45.409,20.450
    45.719,18.604
    46,17.5
    46,17.5
    47,16.5
    47.248,17.243
    47.5,18
    47.83,17.67
    48.16,17.34"/>
  
  <rect class="cls-3" x="0.25" y="0.25" width="48.5" height="29.5"/>
</svg>