<?xml version="1.0" encoding="UTF-8"?>
<svg id="MA1" xmlns="http://www.w3.org/2000/svg" xmlns:xlink="http://www.w3.org/1999/xlink" viewBox="0 0 49 30">
  <defs>
    <style>
      .cls-1 {
        fill: none;
        stroke: #004c97;
        stroke-width: 1.15;
      }
      .cls-2 {
        fill: #fff;
      }
      .cls-3 {
        stroke: #ccd0d4;
        stroke-width: 0.5px;
        fill: none;
      }
      .cls-4 {
        fill: none;
      }
      .cls-5 {
        clip-path: url(#clippath);
      }
    </style>
    <clipPath id="clippath">
      <rect class="cls-4" width="49" height="30"/>
    </clipPath>
  </defs>
  
  <g class="cls-5">
    <rect class="cls-2" width="49" height="30"/>
  </g>
  
  <polyline class="cls-1" points="
    1.5,29
    2.5,27.5 
    4.69,27.13 
    5.86,27.04 
    9,27 
    10.72,26.47 
    15,26.5 
    17.5,26 
    18.53,25.88 
    21.5,23 
    22.5,24.5 
    25,24 
    26,21 
    29.5,20.5 
    31,24 
    31.97,21.41 
    32.52,19.95 
    33.5,16 
    34.5,16 
    34.5,15 
    36,14.5 
    37,16.5 
    37.5,16.5 
    37.5,19.5 
    39,19.5 
    39,21.5 
    41,21.5 
    41.5,17 
    43.5,18 
    43.34,17.16 
    44.12,10.47 
    45,6 
    45.5,6 
    45.5,10.5 
    47,10.5"/>
  
  <rect class="cls-3" x="0.25" y="0.25" width="48.5" height="29.5"/>
</svg>