<?xml version="1.0" encoding="UTF-8"?>
<svg id="MA2" xmlns="http://www.w3.org/2000/svg" xmlns:xlink="http://www.w3.org/1999/xlink" viewBox="0 0 49 30">
  <defs>
    <style>
      .cls-1 {
        fill: none;
        stroke: #004c97;
        stroke-width: 1.15;
      }
      .cls-2 {
        fill: #fff;
      }
      .cls-3 {
        stroke: #ccd0d4;
        stroke-width: 0.5px;
        fill: none;
      }
      .cls-4 {
        fill: none;
      }
      .cls-5 {
        clip-path: url(#clippath);
      }
    </style>
    <clipPath id="clippath">
      <rect class="cls-4" width="49" height="30"/>
    </clipPath>
  </defs>
  
  <g class="cls-5">
    <rect class="cls-2" width="49" height="30"/>
  </g>
  
  <polyline class="cls-1" points="
    1,24.5
    2.5,23
    2.5,23
    3.5,23
    3.583,22.051
    3.625,21.563
    4,20
    4,20
    5.031,19.313
    5.351,19.209
    5.671,19.106
    6,19
    6.113,19.608
    6.227,20.217
    6.344,20.844
    6.871,22.978
    7.763,24.110
    9.5,25.5
    9.83,25.5
    10.16,25.5
    10.5,25.5
    10.766,24.904
    11.031,24.308
    11.305,23.693
    11.661,22.910
    12.018,22.127
    12.375,21.344
    12.549,20.951
    12.723,20.558
    12.902,20.153
    14.545,16.579
    14.545,16.579
    16.5,15.5
    16.83,16.16
    17.16,16.82
    17.5,17.5
    18.047,17.397
    18.593,17.294
    19.156,17.188
    21,17
    21,17
    22.5,18
    22.5,18.33
    22.5,18.66
    22.5,19
    23.655,19
    24.81,19
    26,19
    27.955,15.033
    29.710,11.381
    30.5,7
    30.815,6.324
    31.144,5.655
    31.5,5
    31.5,5
    31.995,5.165
    32.49,5.33
    33,5.5
    33.495,5.335
    33.99,5.17
    34.5,5
    34.748,6.238
    35,7.5
    35.474,7.253
    35.949,7.005
    36.438,6.75
    38,6
    38,6
    39,6
    39.248,7.485
    39.5,9
    40.16,9
    40.82,9
    41.5,9
    41.995,10.815
    42.49,12.63
    43,14.5
    43.66,14.335
    44.32,14.17
    45,14
    45.929,15.567
    46.101,16.687
    46,18.5
    46.825,18.83
    47.65,19.16
    45"/>
  
  <rect class="cls-3" x="0.25" y="0.25" width="48.5" height="29.5"/>
</svg>