<?xml version="1.0" encoding="UTF-8"?>
<svg id="NormalAlt" xmlns="http://www.w3.org/2000/svg" xmlns:xlink="http://www.w3.org/1999/xlink" viewBox="0 0 49 30">
  <defs>
    <style>
      .cls-1 {
        fill: #004c97;
      }

      .cls-2 {
        fill: #fff;
      }

      .cls-3 {
        stroke: #ccd0d4;
        stroke-width: .5px;
      }

      .cls-3, .cls-4 {
        fill: none;
      }

      .cls-5 {
        clip-path: url(#clippath);
      }
    </style>
    <clipPath id="clippath">
      <rect class="cls-4" width="49" height="30"/>
    </clipPath>
  </defs>
  <g class="cls-5">
    <g>
      <rect class="cls-2" width="49" height="30"/>
      <path class="cls-1" d="M25.42,2.73c0.98,0.61,2.00,2.43,2.33,3.20l2.13,5c4.00,8.37,2.70,6.40,5.12,10.10c2.42,3.70,3.10,3.76,4.96,5.31c1.86,1.55,3.96,2.87,4.29,3.20l-41.00,-0.01c3.96,-1.94,2.93,-1.49,5.63,-3.27c2.70,-1.78,3.57,-3.45,4.47,-5.17l3.96,-10.27c0.94,-1.83,1.56,-4.07,1.95,-4.90c0.39,-0.83,1.43,-2.42,2.38,-3.20c0.95,-0.78,2.81,-0.61,3.79,0z"/>
    </g>
  </g>
  <rect class="cls-3" x=".25" y=".25" width="48.5" height="29.5"/>
</svg>