<?xml version="1.0" encoding="UTF-8"?>
<svg id="SeasonalGBM" xmlns="http://www.w3.org/2000/svg" viewBox="0 0 49 30">
  <defs>
    <style>
      .cls-1 { fill: none; stroke: #004c97; stroke-width: 1.15; }
      .cls-2 { fill: #fff; }
      .cls-3 { stroke: #ccd0d4; stroke-width: 0.5px; fill: none; }
      .cls-4 { fill: none; }
      .cls-5 { clip-path: url(#clippath); }
    </style>
    <clipPath id="clippath">
      <rect class="cls-4" width="49" height="30"/>
    </clipPath>
  </defs>
  
  <g class="cls-5">
    <rect class="cls-2" width="49" height="30"/>
  </g>

  <path 
    class="cls-1" 
    d="m1.75,29.25l1.08,-7.05l0,0l0.67,-2.5l0.13,-0.48l0.13,-0.48l0.13,-0.5l0.09,-0.34l0.09,-0.35l0.1,-0.36l0.16,0l0.16,0l0.17,0l0.32,3.34l0.32,3.34l0.33,3.44l0.8,-3.02l0.8,-3.02l0.82,-3.11l0.16,0l0.16,0l0.17,0l0,2.86l0,2.86l0,2.95l0.32,0l0.32,0l0.33,0l0.06,-0.34l0.06,-0.34l0.07,-0.35l0.08,-0.45l0.08,-0.45l0.08,-0.46l0.08,-0.45l0.08,-0.45l0.08,-0.46l0.1,-0.36l0.1,-0.36l0.1,-0.38l0.32,-0.16l0.32,-0.16l0.33,-0.17l0.27,-0.93l0,0l0.14,-1.12l0.06,-0.41l0.06,-0.41l0.07,-0.43l0.09,-0.65l0.09,-0.66l0.06,-0.44l0.06,-0.44l0.07,-0.45l0.16,-1.08l0.16,-1.08l0.16,-1.08l0.78,1.38l0.32,1.03l0.06,1.58l0.03,0.59l0.03,0.6l0.02,0.41l0.02,0.41l0.02,0.42l0.11,2.88l0.19,2.82l0.4,2.86l0.16,-0.64l0.16,-0.64l0.17,-0.66l0.32,0l0.32,0l0.33,0l0.16,-3.34l0.16,-3.34l0.17,-3.44l0.16,0l0.16,0l0.17,0l0.05,0.35l0.05,0.35l0.05,0.36l0.19,1.57l0.19,1.57l0.19,1.57l0.07,0.55l0.07,0.55l0.07,0.57l0.06,0.52l0.06,0.52l0.07,0.54l0.06,0.48l0.06,0.48l0.06,0.5l0.07,1.1l0,0l0.6,0.5l0.95,-3.98l1.43,-3.98l0.5,-4.1l0.16,0l0.16,0l0.17,0l0.32,3.34l0.32,3.34l0.33,3.44l1.59,-6.04l1.97,-6.61l0.04,2.37l-0.11,2.19l-0.64,1.41l-0.03,1.17l-0.32,2.63l0.71,3.17l0.91,-3.06l0.63,-4.12l0.95,-2.4l0.92,-1.92l0.05,-1.38l0.85,-3.01l0.71,4.87l-0.54,3.04l0.88,1.88l0.16,2.64l0.44,2.69l1,-1.5l0.12,-0.57l0.15,-1.74l0.06,-0.68l0.06,-0.7l0.04,-0.47l0.04,-0.47l0.04,-0.49l0.06,-0.72l0.06,-0.73l0.1,-1.18l0.1,-1.18l0.1,-1.18l0.16,0l0.16,0l0.17,0l0.48,3.82l0.48,3.82l0.49,3.93l0.83,-1.67l0.43,-1.29l0.42,-1.79l0.13,-0.54l0.13,-0.54l0.13,-0.56l0.13,-0.56l0.13,-0.56l0.14,-0.58l0.2,-0.85l0.2,-0.87l0.33,-1.4l0.33,-1.4l0.32,-1.4l0.16,0l0.16,0l0.17,0l0.48,5.01l0,0l0.49,5.11l0.8,-3.02l0.8,-3.02l0.82,-3.11l0.16,0l0.16,0l0.17,0l0.24,4.53l0,0l0.24,4.62l0.64,-2.55l0.64,-2.55l0.66,-2.62l0.16,0l0.16,0l0.17,0l0,5.25l0,5.25"/>
  
  <rect class="cls-3" x="0.25" y="0.25" width="48.5" height="29.5"/>
</svg>