<?xml version="1.0" encoding="UTF-8"?>
<svg id="Yule" xmlns="http://www.w3.org/2000/svg" xmlns:xlink="http://www.w3.org/1999/xlink" viewBox="0 0 49 30">
  <defs>
    <style>
      .cls-1 {
        fill: none;
        stroke: #004c97;
        stroke-width: 1.15;
      }
      .cls-2 {
        fill: #fff;
      }
      .cls-3 {
        stroke: #ccd0d4;
        stroke-width: 0.5px;
        fill: none;
      }
      .cls-4 {
        fill: none;
      }
      .cls-5 {
        clip-path: url(#clippath);
      }
    </style>
    <clipPath id="clippath">
      <rect class="cls-4" width="49" height="30"/>
    </clipPath>
  </defs>
  
  <g class="cls-5">
    <rect class="cls-2" width="49" height="30"/>
  </g>

  <polyline class="cls-1" points="
    1.82,28.3
    3.14,28.3
    4.5,28.3
    4.5,26.8
    7.47,26.8
    10.44,26.8
    13.5,26.8
    13.5,22.8
    15.48,22.8
    17.46,22.8
    19.5,22.8
    19.5,20.3
    21.15,20.3
    22.8,20.3
    24.5,20.3
    24.5,18.8
    25.16,18.8
    25.82,18.8
    26.5,18.8
    26.5,11.8
    29.14,11.8
    31.78,11.8
    34.5,11.8
    34.5,9.3
    35.49,9.3
    36.48,9.3
    37.5,9.3
    37.5,7.8
    39.48,7.8
    41.46,7.8
    43.5,7.8
    43.5,4.8
    45.15,4.8
    46.8,4.8"/>

  <rect class="cls-3" x="0.25" y="0.25" width="48.5" height="29.5"/>
</svg>
