<?xml version="1.0" encoding="UTF-8"?>
<svg id="ZIDelaporte" xmlns="http://www.w3.org/2000/svg" xmlns:xlink="http://www.w3.org/1999/xlink" viewBox="0 0 49 30">
  <defs>
    <style>
      .cls-1 {
        fill: #dc4b5b;
      }

      .cls-2 {
        fill: #004c97;
      }

      .cls-3 {
        fill: #fff;
      }

      .cls-4 {
        stroke: #ccd0d4;
        stroke-width: .5px;
      }

      .cls-4, .cls-5 {
        fill: none;
      }

      .cls-6 {
        clip-path: url(#clippath);
      }
    </style>
    <clipPath id="clippath">
      <rect class="cls-5" y="0" width="49" height="30"/>
    </clipPath>
  </defs>
  <g class="cls-6">
    <g>
      <rect class="cls-3" y="0" width="49" height="30"/>
      <rect class="cls-1" x="1" y="1.72" width="3.5" height="28.28"/>
      <rect class="cls-2" x="6.38" y="27.51" width="2.28" height="2.63"/>
      <rect class="cls-2" x="9.36" y="22.24" width="2.28" height="7.9"/>
      <rect class="cls-2" x="12.34" y="15" width="2.28" height="15.14"/>
      <rect class="cls-2" x="15.33" y="7.08" width="2.28" height="23.06"/>
      <rect class="cls-2" x="18.31" y="3.25" width="2.28" height="26.75"/>
      <rect class="cls-2" x="21.3" y="3.25" width="2.28" height="26.75"/>
      <rect class="cls-2" x="24.28" y="5.72" width="2.28" height="23.74"/>
      <rect class="cls-2" x="27.27" y="12.17" width="2.28" height="18.33"/>
      <rect class="cls-2" x="30.25" y="17.59" width="2.28" height="12.9"/>
      <rect class="cls-2" x="33.24" y="22.13" width="2.28" height="9.85"/>
      <rect class="cls-2" x="36.22" y="26.67" width="2.28" height="9.85"/>
      <rect class="cls-2" x="39.21" y="28.01" width="2.28" height="9.85"/>
    </g>
  </g>
  <rect class="cls-4" x=".25" y=".25" width="48.5" height="29.5"/>
</svg>