<?xml version="1.0" encoding="UTF-8"?>
<svg id="ZTBinomial" xmlns="http://www.w3.org/2000/svg" xmlns:xlink="http://www.w3.org/1999/xlink" viewBox="0 0 49 30">
  <defs>
    <style>
      .cls-1 {
        fill: #dc4b5b;
      }

      .cls-2 {
        fill: #004c97;
      }

      .cls-3 {
        fill: #fff;
      }

      .cls-4 {
        stroke: #ccd0d4;
        stroke-width: .5px;
      }

      .cls-4, .cls-5 {
        fill: none;
      }

      .cls-6 {
        clip-path: url(#clippath);
      }
    </style>
    <clipPath id="clippath">
      <rect class="cls-5" y="0" width="49" height="30"/>
    </clipPath>
  </defs>
  <g>
    <g class="cls-6">
      <g>
        <rect class="cls-3" y="0" width="49" height="30"/>
        <rect class="cls-2" x="1" y="28.04" width="3.28" height="1.97"/>
        <rect class="cls-2" x="5.7" y="26.06" width="3.28" height="3.95"/>
        <rect class="cls-2" x="10.39" y="18.17" width="3.28" height="11.85"/>
        <rect class="cls-2" x="15.09" y="10.4" width="3.28" height="19.61"/>
        <rect class="cls-2" x="19.78" y="4.45" width="3.28" height="25.3"/>
        <rect class="cls-2" x="24.48" y="1.38" width="3.28" height="28.63"/>
        <rect class="cls-2" x="29.18" y="10.66" width="3.28" height="19.35"/>
        <rect class="cls-2" x="33.87" y="18.17" width="3.28" height="12.83"/>
        <rect class="cls-2" x="38.57" y="26.06" width="3.28" height="4.94"/>
        <rect class="cls-2" x="43.27" y="28.04" width="3.28" height="1.89"/>
      </g>
    </g>
    <rect class="cls-4" x=".25" y=".25" width="48.5" height="29.5"/>
  </g>
  <path d="M3.83,6.15c0-1.47.65-3.1,2.3-3.1s2.3,1.63,2.3,3.1-.66,3.11-2.3,3.11-2.3-1.65-2.3-3.11ZM7.66,6.15c0-1.2-.39-2.43-1.53-2.43s-1.53,1.23-1.53,2.43.39,2.44,1.53,2.44,1.53-1.24,1.53-2.44Z"/>
  <path class="cls-1" d="M2.11,3.26l7.66,6.09c.11.09.27.07.35-.04.09-.11.07-.27-.04-.35L2.42,2.86c-.11-.09-.27-.07-.35.04-.09.11-.07.27.04.35"/>
</svg>