<?xml version="1.0" encoding="UTF-8"?>
<svg id="ZTDelaporte" xmlns="http://www.w3.org/2000/svg" xmlns:xlink="http://www.w3.org/1999/xlink" viewBox="0 0 49 30">
  <defs>
    <style>
      .cls-1 {
        fill: #dc4b5b;
      }

      .cls-2 {
        fill: #004c97;
      }

      .cls-3 {
        fill: #fff;
      }

      .cls-4 {
        stroke: #ccd0d4;
        stroke-width: .5px;
      }

      .cls-4, .cls-5 {
        fill: none;
      }

      .cls-6 {
        clip-path: url(#clippath);
      }
    </style>
    <clipPath id="clippath">
      <rect class="cls-5" y="0" width="49" height="30"/>
    </clipPath>
  </defs>
  <g>
    <g class="cls-6">
      <g>
        <rect class="cls-3" y="0" width="49" height="30"/>
        <rect class="cls-2" x="1" y="28.49" width="2.52" height="1.54"/>
        <rect class="cls-2" x="4.1" y="24.74" width="2.52" height="5.29"/>
        <rect class="cls-2" x="7.2" y="18.39" width="2.52" height="11.64"/>
        <rect class="cls-2" x="10.31" y="10.76" width="2.52" height="19.27"/>
        <rect class="cls-2" x="13.41" y="4.9" width="2.52" height="24.87"/>
        <rect class="cls-2" x="16.51" y="1.89" width="2.52" height="28.14"/>
        <rect class="cls-2" x="19.61" y="1.89" width="2.52" height="28.14"/>
        <rect class="cls-2" x="22.71" y="4" width="2.52" height="26.03"/>
        <rect class="cls-2" x="25.82" y="8.15" width="2.52" height="22.85"/>
        <rect class="cls-2" x="28.92" y="14.59" width="2.52" height="16.41"/>
        <rect class="cls-2" x="32.02" y="20.4" width="2.52" height="9.55"/>
        <rect class="cls-2" x="35.12" y="24.3" width="2.52" height="5.7"/>
        <rect class="cls-2" x="38.22" y="26.66" width="2.52" height="3.34"/>
        <rect class="cls-2" x="41.33" y="28.08" width="2.52" height="3.34"/>
        <rect class="cls-2" x="44.43" y="28.9" width="2.52" height="3.34"/>
      </g>
    </g>
    <rect class="cls-4" x=".25" y=".25" width="48.5" height="29.5"/>
  </g>
  <path d="M3.83,6.15c0-1.47.65-3.1,2.3-3.1s2.3,1.63,2.3,3.1-.66,3.11-2.3,3.11-2.3-1.65-2.3-3.11ZM7.66,6.15c0-1.2-.39-2.43-1.53-2.43s-1.53,1.23-1.53,2.43.39,2.44,1.53,2.44,1.53-1.24,1.53-2.44Z"/>
  <path class="cls-1" d="M2.11,3.26l7.66,6.09c.11.09.27.07.35-.04.09-.11.07-.27-.04-.35L2.42,2.86c-.11-.09-.27-.07-.35.04-.09.11-.07.27.04.35"/>
</svg>