<svg width="284" height="66" viewBox="0 0 284 66" fill="none" xmlns="http://www.w3.org/2000/svg">
<g clip-path="url(#clip0_62_1950)">
<rect width="284" height="65" transform="translate(0 0.5)" fill="white"/>
<path d="M0 14H273" stroke="#CCD0D4" stroke-width="0.5" stroke-linecap="round"/>
<path d="M0 27H273" stroke="#CCD0D4" stroke-width="0.5" stroke-linecap="round"/>
<path d="M0 40H272" stroke="#CCD0D4" stroke-width="0.5" stroke-linecap="round"/>
<path d="M-1 53H273" stroke="#CCD0D4" stroke-width="0.5" stroke-linecap="round"/>
<path d="M13 65.5L13 -0.500002" stroke="#CCD0D4" stroke-width="0.5" stroke-linecap="round"/>
<path d="M26 65.5L26 -0.500002" stroke="#CCD0D4" stroke-width="0.5" stroke-linecap="round"/>
<path d="M39 65.5L39 -0.500002" stroke="#CCD0D4" stroke-width="0.5" stroke-linecap="round"/>
<path d="M52 65.5L52 -0.500002" stroke="#CCD0D4" stroke-width="0.5" stroke-linecap="round"/>
<path d="M65 65.5L65 -0.500002" stroke="#CCD0D4" stroke-width="0.5" stroke-linecap="round"/>
<path d="M78 65.5L78 -0.500002" stroke="#CCD0D4" stroke-width="0.5" stroke-linecap="round"/>
<path d="M91 65.5L91 -0.500002" stroke="#CCD0D4" stroke-width="0.5" stroke-linecap="round"/>
<path d="M104 65.5L104 -0.500002" stroke="#CCD0D4" stroke-width="0.5" stroke-linecap="round"/>
<path d="M117 65.5L117 -0.500002" stroke="#CCD0D4" stroke-width="0.5" stroke-linecap="round"/>
<path d="M130 65.5L130 -0.500002" stroke="#CCD0D4" stroke-width="0.5" stroke-linecap="round"/>
<path d="M143 65.5L143 -0.500002" stroke="#CCD0D4" stroke-width="0.5" stroke-linecap="round"/>
<path d="M156 65.5L156 -0.500002" stroke="#CCD0D4" stroke-width="0.5" stroke-linecap="round"/>
<path d="M169 65.5L169 -0.500002" stroke="#CCD0D4" stroke-width="0.5" stroke-linecap="round"/>
<path d="M182 65.5L182 -0.500002" stroke="#CCD0D4" stroke-width="0.5" stroke-linecap="round"/>
<path d="M195 65.5L195 -0.500002" stroke="#CCD0D4" stroke-width="0.5" stroke-linecap="round"/>
<path d="M208 65L208 -1" stroke="#CCD0D4" stroke-width="0.5" stroke-linecap="round"/>
<path d="M221 64.5L221 -1.5" stroke="#CCD0D4" stroke-width="0.5" stroke-linecap="round"/>
<path d="M234 64L234 -2" stroke="#CCD0D4" stroke-width="0.5" stroke-linecap="round"/>
<path d="M247 63.5L247 -2.5" stroke="#CCD0D4" stroke-width="0.5" stroke-linecap="round"/>
<path d="M260 63L260 -3" stroke="#CCD0D4" stroke-width="0.5" stroke-linecap="round"/>
<path d="M273 62.5L273 -3.5" stroke="#CCD0D4" stroke-width="0.5" stroke-linecap="round"/>
<path d="M1 1V65H273" stroke="#9DA4AA" stroke-width="1.5" stroke-linecap="round"/>
<path d="M53 37.5139C60.6667 35.3472 77.8 28.9139 85 20.5139C92.2 12.1139 104.667 32.0139 110 43.0139C113.833 48.0139 126.8 52.4139 148 30.0139C169.2 7.61392 201.833 31.6806 215.5 46.5139" stroke="#004C97" stroke-width="1.5" stroke-linecap="round"/>
</g>
<defs>
<clipPath id="clip0_62_1950">
<rect width="284" height="65" fill="white" transform="translate(0 0.5)"/>
</clipPath>
</defs>
</svg>
